<svg width="189" height="100" viewBox="0 0 189 100" fill="none" xmlns="http://www.w3.org/2000/svg">
<g filter="url(#filter0_d_4_22)">
<path d="M44.2791 -2.7941C234.197 4.75115 19.9129 -8.27918 114.096 -2.62886C208.278 3.02145 91.4895 -1.30727 163.776 18.5317C236.063 38.3708 79.7616 47.7944 100.734 53.9816C121.707 60.1687 204.763 59.3339 154.696 72.8736C104.63 86.4132 173.645 68.5202 105.429 86.4871C37.2124 104.454 86.0948 84.7595 116.376 74.9994C146.657 65.2394 72.7484 64.9731 69.9686 50.8128C67.1888 36.6526 88.5831 32.7495 133.743 28.1291C178.903 23.5088 -145.639 -10.3393 44.2791 -2.7941Z" fill="#FFFD75"/>
<path d="M138.714 78.2995C138.716 78.2946 138.719 78.2895 138.721 78.2842C141.631 77.4643 146.65 76.0855 154.958 73.8389C161.227 72.1435 165.492 70.6533 168.073 69.3161C169.349 68.6548 170.318 67.9784 170.891 67.2511C171.186 66.8763 171.408 66.4472 171.476 65.9673C171.545 65.4724 171.439 65.0046 171.209 64.5921C170.781 63.8266 169.939 63.2696 169.017 62.8342C168.057 62.3807 166.828 61.9769 165.404 61.6092C162.553 60.8725 158.777 60.2446 154.485 59.679C148.42 58.8796 141.236 58.1944 134.04 57.508C131.054 57.2232 128.066 56.9382 125.154 56.6447C115.174 55.6386 106.152 54.5374 101.017 53.0224C100.644 52.9123 100.357 52.8084 100.142 52.7149C100.305 52.6259 100.513 52.5264 100.772 52.4183C102.786 51.5764 106.783 50.64 112.093 49.6037C116.532 48.7375 121.808 47.8157 127.462 46.8278C128.528 46.6416 129.607 46.453 130.697 46.262C137.561 45.0589 144.829 43.7612 151.698 42.3558C158.564 40.9512 165.055 39.4345 170.362 37.7904C175.615 36.1629 179.882 34.3613 182.144 32.3113C183.29 31.2726 184.077 30.0278 184.002 28.5885C183.929 27.1646 183.028 25.8808 181.589 24.7192C178.726 22.4066 173.076 20.0471 164.041 17.5674C155.023 15.0924 149.002 13.007 145.167 11.2492C143.248 10.3696 141.913 9.5887 141.032 8.90586C140.133 8.20907 139.813 7.69522 139.725 7.38232C139.661 7.15155 139.693 6.92768 139.956 6.61643C140.251 6.26721 140.783 5.88914 141.564 5.50547C143.116 4.74329 145.289 4.12766 147.39 3.60063C147.918 3.46818 148.448 3.34008 148.962 3.21596C150.41 2.86594 151.727 2.54763 152.5 2.25301C152.76 2.15381 153.064 2.0204 153.302 1.83335C153.42 1.73999 153.602 1.57207 153.715 1.31168C153.848 1.00195 153.843 0.648175 153.684 0.334802C153.551 0.0710748 153.346 -0.0892307 153.21 -0.178202C153.064 -0.27419 152.904 -0.346642 152.755 -0.403765C152.456 -0.518172 152.074 -0.616998 151.626 -0.708471C149.841 -1.07257 146.33 -1.44805 140.383 -1.90809C134.413 -2.36995 125.929 -2.92075 114.155 -3.62707C102.383 -4.33331 95.4283 -4.74784 91.9009 -4.94716C90.1569 -5.0457 89.2154 -5.09389 88.9607 -5.09569C88.9411 -5.09582 88.9167 -5.0958 88.8915 -5.09509L88.8901 -5.09505C88.8777 -5.09475 88.8103 -5.09311 88.7334 -5.07997C88.6654 -5.06603 88.4052 -4.96319 88.233 -4.83952C87.9142 -4.27082 88.1886 -3.38808 88.4266 -3.21078C88.5033 -3.17364 88.6187 -3.13189 88.6564 -3.12156C88.6786 -3.11613 88.7142 -3.10845 88.7304 -3.10538C88.8095 -3.09077 88.9258 -3.07926 89.014 -3.07073C89.2319 -3.0497 89.5971 -3.01911 90.0811 -2.98052C91.1241 -2.89737 92.7493 -2.77462 94.7436 -2.62401C98.4644 -2.34299 103.47 -1.96496 108.374 -1.56611C95.851 -1.86828 75.5595 -2.55215 44.3188 -3.79331C20.5773 -4.73654 4.84911 -5.03414 -4.57431 -4.82093C-9.26817 -4.71472 -12.4626 -4.48111 -14.3105 -4.1195C-14.7774 -4.02814 -15.1867 -3.92341 -15.5259 -3.79948C-15.8433 -3.68349 -16.1983 -3.51633 -16.4652 -3.24807C-16.6084 -3.10418 -16.7518 -2.90557 -16.8265 -2.64667C-16.9041 -2.37743 -16.8881 -2.10905 -16.8082 -1.87016C-16.6654 -1.44283 -16.3378 -1.15798 -16.1001 -0.985621C-15.5938 -0.618552 -14.8073 -0.283302 -13.8758 0.0369734C-12.916 0.366962 -11.7039 0.713023 -10.2755 1.0736C-7.41705 1.79517 -3.63426 2.5893 0.847252 3.43867C9.8133 5.138 21.6338 7.06917 34.5723 9.0934C42.5701 10.3447 50.9953 11.6315 59.4424 12.9218C78.3442 15.8089 97.3561 18.7128 111.936 21.2721C122.505 23.1272 130.664 24.7882 134.767 26.1158C135.443 26.3346 135.982 26.5359 136.39 26.7167C135.758 26.868 134.855 27.0101 133.641 27.1343C111.087 29.4419 94.3413 31.5798 83.5805 34.939C78.205 36.617 74.1839 38.6394 71.6869 41.2537C69.1274 43.9334 68.234 47.1678 68.9874 51.0055C69.4164 53.191 71.1734 54.9394 73.4758 56.3672C75.8073 57.813 78.8954 59.0527 82.3488 60.1467C88.7161 62.1636 96.5324 63.7462 103.586 65.1743C104.187 65.296 104.782 65.4166 105.371 65.5362C109.133 66.3009 112.612 67.0261 115.485 67.7601C118.391 68.5024 120.56 69.2263 121.778 69.9529C122.406 70.3271 122.598 70.5975 122.639 70.7069C122.65 70.7342 122.649 70.7444 122.643 70.7682C122.633 70.8069 122.592 70.9081 122.446 71.07C122.141 71.4092 121.524 71.8513 120.441 72.3745C119.376 72.8885 117.938 73.4453 116.069 74.0477C100.929 78.9277 81.065 86.3132 73.5037 90.2541C72.554 90.749 71.7646 91.2067 71.1924 91.6133C70.9081 91.8152 70.6481 92.0251 70.4438 92.2405C70.2668 92.4272 70.0037 92.7479 69.9409 93.1766C69.905 93.4219 69.9373 93.6922 70.0726 93.9457C70.2019 94.1879 70.3892 94.3478 70.5559 94.4501C70.8636 94.6392 71.2276 94.7101 71.5302 94.7438C72.1665 94.8148 73.07 94.7713 74.2178 94.6377C78.8375 94.1004 88.642 91.9426 105.684 87.4541C122.737 82.9627 131.218 80.7112 135.127 79.6493C136.105 79.3838 136.8 79.1918 137.273 79.0573C137.717 78.9311 138.022 78.8401 138.166 78.7825C138.188 78.7735 138.233 78.7552 138.283 78.7287C138.307 78.7162 138.355 78.6899 138.411 78.65C138.436 78.6319 138.6 78.5177 138.714 78.2995ZM99.6806 52.4522C99.6811 52.4521 99.6851 52.4557 99.6912 52.4631C99.6832 52.4559 99.6801 52.4522 99.6806 52.4522ZM99.7143 53.0061C99.7084 53.0146 99.7044 53.0188 99.7039 53.0187C99.7035 53.0187 99.7065 53.0144 99.7143 53.0061ZM88.9442 -3.09575C88.9333 -3.09538 88.9268 -3.09541 88.9262 -3.09552C88.9257 -3.09563 88.9312 -3.09582 88.9442 -3.09575ZM137.288 26.4014C137.288 26.4017 137.285 26.4045 137.277 26.4096C137.284 26.4037 137.288 26.4011 137.288 26.4014Z" stroke="black" stroke-width="2"/>
</g>
<defs>
<filter id="filter0_d_4_22" x="-21.8771" y="-6.09575" width="210.884" height="109.873" filterUnits="userSpaceOnUse" color-interpolation-filters="sRGB">
<feFlood flood-opacity="0" result="BackgroundImageFix"/>
<feColorMatrix in="SourceAlpha" type="matrix" values="0 0 0 0 0 0 0 0 0 0 0 0 0 0 0 0 0 0 127 0" result="hardAlpha"/>
<feOffset dy="4"/>
<feGaussianBlur stdDeviation="2"/>
<feComposite in2="hardAlpha" operator="out"/>
<feColorMatrix type="matrix" values="0 0 0 0 0 0 0 0 0 0 0 0 0 0 0 0 0 0 0.25 0"/>
<feBlend mode="normal" in2="BackgroundImageFix" result="effect1_dropShadow_4_22"/>
<feBlend mode="normal" in="SourceGraphic" in2="effect1_dropShadow_4_22" result="shape"/>
</filter>
</defs>
</svg>
