<svg width="164" height="100" viewBox="0 0 164 100" fill="none" xmlns="http://www.w3.org/2000/svg">
<g filter="url(#filter0_d_4_22)">
<path d="M19.2791 -2.7941C82 3.00001 -2.8089 -4.75773 89.0955 -2.62886C181 -0.49999 66.4896 -1.30726 138.776 18.5318C211.063 38.3708 54.7616 47.7944 75.7341 53.9816C96.7067 60.1688 179.763 59.3339 129.696 72.8736C79.6303 86.4132 148.645 68.5202 80.4289 86.4871C12.2125 104.454 61.0948 84.7595 91.376 74.9994C121.657 65.2394 47.7484 64.9731 44.9686 50.8129C42.1888 36.6526 63.5831 32.7495 108.743 28.1291C153.903 23.5088 -43.4418 -8.5882 19.2791 -2.7941Z" fill="#FFFD75"/>
<path d="M7.58759 -3.80007C7.58495 -3.80194 7.5853 -3.80185 7.58807 -3.79973L7.58759 -3.80007ZM113.714 78.2995C113.716 78.2947 113.719 78.2895 113.721 78.2842C116.631 77.4643 121.65 76.0855 129.958 73.8389C136.227 72.1435 140.492 70.6533 143.073 69.3161C144.349 68.6548 145.318 67.9784 145.891 67.2511C146.186 66.8763 146.408 66.4472 146.476 65.9673C146.545 65.4724 146.439 65.0046 146.209 64.5921C145.781 63.8266 144.939 63.2696 144.017 62.8342C143.057 62.3807 141.828 61.9769 140.404 61.6092C137.553 60.8726 133.777 60.2446 129.485 59.679C123.42 58.8796 116.236 58.1944 109.04 57.5081C106.054 57.2232 103.066 56.9382 100.154 56.6447C90.174 55.6386 81.1523 54.5374 76.0171 53.0225C75.6437 52.9123 75.3567 52.8084 75.1418 52.7149C75.3054 52.6259 75.5134 52.5265 75.7721 52.4183C77.786 51.5764 81.7828 50.64 87.0935 49.6037C91.5318 48.7376 96.8075 47.8158 102.462 46.8279C103.528 46.6416 104.607 46.453 105.697 46.262C112.561 45.0589 119.829 43.7612 126.698 42.3558C133.564 40.9512 140.055 39.4345 145.362 37.7904C150.615 36.1629 154.882 34.3613 157.144 32.3113C158.29 31.2726 159.077 30.0278 159.002 28.5885C158.929 27.1646 158.028 25.8808 156.589 24.7192C153.726 22.4066 148.076 20.0471 139.041 17.5674C130.026 15.0932 123.974 12.9541 120.085 11.1103C118.14 10.1881 116.771 9.3557 115.851 8.61534C114.921 7.86649 114.528 7.27432 114.395 6.85459C114.281 6.4918 114.332 6.17168 114.569 5.81034C114.832 5.40952 115.32 4.97677 116.045 4.53202C117.494 3.64418 119.567 2.90013 121.592 2.26423C122.267 2.05233 122.918 1.85789 123.532 1.67469C123.834 1.58435 124.128 1.49675 124.41 1.41113C125.243 1.15903 126.001 0.918492 126.535 0.69101C126.788 0.582895 127.078 0.442484 127.304 0.257692C127.416 0.166287 127.588 0.0040984 127.697 -0.241944C127.828 -0.534452 127.842 -0.890144 127.678 -1.21978C127.539 -1.49705 127.322 -1.65824 127.184 -1.74363C127.034 -1.83593 126.873 -1.90184 126.726 -1.95165C126.432 -2.05155 126.058 -2.13166 125.624 -2.20157C123.893 -2.47997 120.48 -2.70158 114.69 -2.92139C108.876 -3.14211 100.607 -3.36249 89.1187 -3.62859C66.1438 -4.16078 54.1758 -4.0763 48.1781 -3.7364C46.6764 -3.6513 45.5338 -3.54941 44.6785 -3.43461C43.8436 -3.32255 43.2148 -3.19011 42.7833 -3.01718C42.5772 -2.93462 42.3083 -2.8019 42.0989 -2.56994C41.9091 -2.35967 41.7804 -2.07506 41.7813 -1.76101C38.6343 -2.01008 32.5863 -2.56888 21.5068 -3.59254C20.8147 -3.65649 20.103 -3.72225 19.3711 -3.78986C15.4458 -4.15247 12.5215 -4.36846 10.4847 -4.45158C9.46801 -4.49307 8.65525 -4.50223 8.04195 -4.47767C7.73582 -4.46541 7.4633 -4.44417 7.23155 -4.41066C7.01981 -4.38004 6.76312 -4.32899 6.53639 -4.22057C6.36095 -4.13668 5.75789 -3.783 5.85892 -3.03797C5.89791 -2.75042 6.03886 -2.54734 6.13372 -2.43575C6.23336 -2.31854 6.34307 -2.23074 6.43108 -2.16836C6.75247 -1.94057 7.24679 -1.73583 7.77839 -1.54606C8.89842 -1.14623 10.6579 -0.653913 12.9033 -0.0869029C19.1519 1.49101 29.4619 3.72006 41.1758 6.25263C46.3249 7.36588 51.7453 8.53778 57.2112 9.7388C75.1469 13.6798 93.5738 17.9344 104.692 21.4859C107.469 22.3732 109.765 23.2086 111.472 23.9754C112.326 24.3589 113.013 24.7168 113.533 25.0453C114.058 25.3774 114.345 25.6389 114.476 25.8144C114.407 25.8689 114.284 25.9508 114.071 26.0497C113.185 26.4605 111.458 26.8461 108.641 27.1343C86.0872 29.4419 69.3413 31.5798 58.5804 34.939C53.205 36.617 49.1839 38.6394 46.6869 41.2537C44.1274 43.9334 43.234 47.1678 43.9873 51.0055C44.4164 53.191 46.1734 54.9394 48.4758 56.3672C50.8073 57.813 53.8953 59.0528 57.3488 60.1467C63.7161 62.1636 71.5324 63.7462 78.5859 65.1743C79.1869 65.296 79.7824 65.4166 80.371 65.5362C84.1335 66.3009 87.6117 67.0261 90.485 67.7601C93.3907 68.5024 95.5601 69.2263 96.7784 69.9529C97.4059 70.3272 97.5985 70.5975 97.6394 70.7069C97.6496 70.7342 97.6495 70.7444 97.643 70.7682C97.6325 70.8069 97.5921 70.9082 97.4465 71.07C97.1414 71.4092 96.524 71.8513 95.4407 72.3745C94.3762 72.8885 92.9381 73.4453 91.0692 74.0477C75.9286 78.9277 56.065 86.3132 48.5037 90.2541C47.554 90.749 46.7646 91.2067 46.1924 91.6133C45.9081 91.8153 45.6481 92.0251 45.4438 92.2405C45.2668 92.4272 45.0037 92.7479 44.941 93.1766C44.905 93.4219 44.9373 93.6922 45.0726 93.9457C45.2019 94.1879 45.3892 94.3478 45.5559 94.4501C45.8637 94.6392 46.2276 94.7101 46.5302 94.7438C47.1665 94.8148 48.07 94.7713 49.2178 94.6378C53.8375 94.1004 63.642 91.9426 80.6836 87.4541C97.7366 82.9627 106.218 80.7112 110.127 79.6493C111.105 79.3838 111.8 79.1918 112.273 79.0573C112.717 78.9311 113.022 78.8401 113.166 78.7825C113.188 78.7735 113.233 78.7552 113.283 78.7287C113.307 78.7162 113.355 78.69 113.411 78.65L113.413 78.6482C113.445 78.6252 113.604 78.5115 113.714 78.2995ZM74.6806 52.4522C74.6811 52.4522 74.6851 52.4558 74.6912 52.4631C74.6832 52.4559 74.6801 52.4522 74.6806 52.4522ZM74.7143 53.0061C74.7085 53.0145 74.7045 53.0187 74.704 53.0188C74.7034 53.0188 74.7063 53.0146 74.7143 53.0061Z" stroke="black" stroke-width="2"/>
</g>
<defs>
<filter id="filter0_d_4_22" x="0.846252" y="-5.49115" width="163.161" height="109.269" filterUnits="userSpaceOnUse" color-interpolation-filters="sRGB">
<feFlood flood-opacity="0" result="BackgroundImageFix"/>
<feColorMatrix in="SourceAlpha" type="matrix" values="0 0 0 0 0 0 0 0 0 0 0 0 0 0 0 0 0 0 127 0" result="hardAlpha"/>
<feOffset dy="4"/>
<feGaussianBlur stdDeviation="2"/>
<feComposite in2="hardAlpha" operator="out"/>
<feColorMatrix type="matrix" values="0 0 0 0 0 0 0 0 0 0 0 0 0 0 0 0 0 0 0.25 0"/>
<feBlend mode="normal" in2="BackgroundImageFix" result="effect1_dropShadow_4_22"/>
<feBlend mode="normal" in="SourceGraphic" in2="effect1_dropShadow_4_22" result="shape"/>
</filter>
</defs>
</svg>
